<svg width="6" height="5" viewBox="0 0 6 5" fill="none" xmlns="http://www.w3.org/2000/svg">
<path d="M5.54612 1.88385C5.52095 1.78877 5.44545 1.74123 5.34478 1.71746L3.73411 1.50352L3.00428 0.124798C2.92878 -0.0415993 2.62678 -0.0415993 2.55128 0.124798L1.82144 1.47975L0.235938 1.71746C0.135271 1.71746 0.059771 1.78877 0.00943752 1.88385C-0.0157292 1.97894 0.00943752 2.07402 0.0849377 2.12156L1.24261 3.19126L0.965773 4.7126C0.940606 4.80769 0.99094 4.90277 1.06644 4.95031C1.14194 4.99786 1.24261 5.02163 1.34327 4.97409L2.77778 4.26096L4.21228 4.97409C4.26261 4.97409 4.28778 4.97409 4.33811 4.97409C4.38845 4.97409 4.43878 4.95031 4.48912 4.92654C4.56462 4.879 4.61495 4.78392 4.58978 4.68883L4.31295 3.16749L5.47062 2.09779C5.54612 2.05025 5.57128 1.95517 5.54612 1.88385Z" fill="white"/>
</svg>
